<svg width="1024" height="1024" viewBox="0 0 1024 1024" fill="none" xmlns="http://www.w3.org/2000/svg">
<rect width="1024" height="1024" fill="white"/>
<path d="M163 287.261H862V798.936C862 854.164 817.228 898.936 762 898.936H263C207.772 898.936 163 854.164 163 798.936V287.261Z" fill="#F0F0F0"/>
<rect x="256.798" y="340.277" width="149.889" height="150.692" rx="10" fill="#FF5C72"/>
<rect x="437.688" y="340.277" width="149.889" height="150.692" rx="10" fill="#FFC83C"/>
<rect x="618.577" y="340.277" width="149.889" height="150.692" rx="10" fill="#1FC7B6"/>
<rect x="256.798" y="517.969" width="149.889" height="150.692" rx="10" fill="#34B3F1"/>
<rect x="437.688" y="517.969" width="149.889" height="150.692" rx="10" fill="white"/>
<rect x="618.577" y="517.969" width="149.889" height="150.692" rx="10" fill="#FF73C0"/>
<rect x="256.798" y="695.661" width="149.889" height="150.692" rx="10" fill="#3FD17A"/>
<rect x="437.688" y="695.661" width="149.889" height="150.692" rx="10" fill="#FF8A3C"/>
<rect x="618.577" y="695.661" width="149.889" height="150.692" rx="10" fill="#A982FF"/>
<path d="M297.44 643.975C293.04 643.975 289.64 642.775 287.24 640.375C284.84 637.875 283.64 634.375 283.64 629.875V549.625C283.64 545.025 284.84 541.525 287.24 539.125C289.64 536.725 293.04 535.525 297.44 535.525C301.94 535.525 305.34 536.725 307.64 539.125C310.04 541.525 311.24 545.025 311.24 549.625V577.675H354.89V549.625C354.89 545.025 356.04 541.525 358.34 539.125C360.74 536.725 364.19 535.525 368.69 535.525C373.09 535.525 376.44 536.725 378.74 539.125C381.14 541.525 382.34 545.025 382.34 549.625V629.875C382.34 634.375 381.14 637.875 378.74 640.375C376.44 642.775 373.09 643.975 368.69 643.975C364.19 643.975 360.74 642.775 358.34 640.375C356.04 637.875 354.89 634.375 354.89 629.875V600.325H311.24V629.875C311.24 634.375 310.09 637.875 307.79 640.375C305.49 642.775 302.04 643.975 297.44 643.975Z" fill="black"/>
<path d="M518.796 644.275C511.096 644.275 504.296 643.325 498.396 641.425C492.496 639.425 487.496 636.475 483.396 632.575C479.396 628.675 476.346 623.825 474.246 618.025C472.246 612.125 471.246 605.325 471.246 597.625V549.475C471.246 544.875 472.446 541.425 474.846 539.125C477.246 536.725 480.646 535.525 485.046 535.525C489.546 535.525 492.946 536.725 495.246 539.125C497.646 541.425 498.846 544.875 498.846 549.475V597.925C498.846 605.625 500.546 611.425 503.946 615.325C507.346 619.225 512.296 621.175 518.796 621.175C525.196 621.175 530.096 619.225 533.496 615.325C536.896 611.425 538.596 605.625 538.596 597.925V549.475C538.596 544.875 539.746 541.425 542.046 539.125C544.446 536.725 547.846 535.525 552.246 535.525C556.646 535.525 559.996 536.725 562.296 539.125C564.596 541.425 565.746 544.875 565.746 549.475V597.625C565.746 607.925 563.946 616.575 560.346 623.575C556.846 630.475 551.596 635.675 544.596 639.175C537.596 642.575 528.996 644.275 518.796 644.275Z" fill="black"/>
<path d="M669.339 642.625C664.639 642.625 661.039 641.425 658.539 639.025C656.139 636.525 654.939 632.975 654.939 628.375V551.125C654.939 546.525 656.139 543.025 658.539 540.625C661.039 538.125 664.639 536.875 669.339 536.875H705.939C713.539 536.875 719.989 538.025 725.289 540.325C730.689 542.525 734.789 545.675 737.589 549.775C740.389 553.875 741.789 558.675 741.789 564.175C741.789 570.375 739.989 575.675 736.389 580.075C732.889 584.475 728.089 587.475 721.989 589.075V586.675C729.189 587.975 734.739 590.875 738.639 595.375C742.639 599.875 744.639 605.625 744.639 612.625C744.639 621.925 741.289 629.275 734.589 634.675C727.989 639.975 718.939 642.625 707.439 642.625H669.339ZM681.339 622.375H703.689C708.789 622.375 712.489 621.425 714.789 619.525C717.189 617.525 718.389 614.575 718.389 610.675C718.389 606.775 717.189 603.875 714.789 601.975C712.489 600.075 708.789 599.125 703.689 599.125H681.339V622.375ZM681.339 578.875H700.989C705.989 578.875 709.639 577.975 711.939 576.175C714.339 574.375 715.539 571.625 715.539 567.925C715.539 564.225 714.339 561.525 711.939 559.825C709.639 558.025 705.989 557.125 700.989 557.125H681.339V578.875Z" fill="black"/>
<path d="M162 258.402C162 203.174 206.772 158.402 262 158.402H762C817.228 158.402 862 203.174 862 258.402V286.538H162V258.402Z" fill="#EB5A5A"/>
<rect x="361.547" y="125" width="63.3484" height="112" rx="10" fill="#D9D9D9"/>
<rect x="599.104" y="125" width="63.3484" height="112" rx="10" fill="#D9D9D9"/>
</svg>
